<?xml version="1.0" encoding="UTF-8" standalone="no"?>
<!DOCTYPE svg PUBLIC "-//W3C//DTD SVG 1.1//EN" "http://www.w3.org/Graphics/SVG/1.1/DTD/svg11.dtd">
<svg width="100%" height="100%" viewBox="0 0 1024 1024" version="1.1" xmlns="http://www.w3.org/2000/svg" xmlns:xlink="http://www.w3.org/1999/xlink" xml:space="preserve" xmlns:serif="http://www.serif.com/" style="fill-rule:evenodd;clip-rule:evenodd;stroke-linejoin:round;stroke-miterlimit:2;">
    <metadata>
        <rdf:RDF
           xmlns:rdf = "http://www.w3.org/1999/02/22-rdf-syntax-ns#"
           xmlns:dc = "http://purl.org/dc/elements/1.1/"
           xmlns:schema="http://schema.org/">
            <rdf:Description about="">
                <dc:creator>Takuro Okada</dc:creator>
                <schema:license rdf:resource="https://raw.githubusercontent.com/mill6-plat6aux/ovule/refs/heads/main/LICENSE"/>
            </rdf:Description>
        </rdf:RDF>
    </metadata>
    <g transform="matrix(2.78217,0,0,2.78217,-622.735,-404.869)">
        <path d="M290.285,263.4C297.543,217.587 336.634,182.553 383.705,182.553C413.647,182.553 440.359,196.728 457.708,218.84C464.291,217.095 471.204,216.166 478.334,216.166C522.452,216.166 558.271,251.763 558.271,295.608C558.271,299.997 557.912,304.303 557.223,308.493C578.155,323.058 591.889,347.446 591.889,375.05C591.889,419.617 556.092,455.799 512,455.799C499.831,455.799 488.293,453.042 477.963,448.113C456.136,465.909 428.474,476.551 398.396,476.551C354.966,476.551 316.574,454.364 293.529,420.51C254.24,415.51 223.831,382.114 223.831,341.715C223.831,302.434 252.58,269.773 290.285,263.4ZM339.406,338.474L339.406,327.115L368.747,327.115L368.747,353.972C365.896,356.731 361.764,359.161 356.353,361.261C350.942,363.361 345.462,364.411 339.912,364.411C332.861,364.411 326.714,362.932 321.471,359.973C316.228,357.015 312.289,352.784 309.652,347.281C307.015,341.777 305.697,335.791 305.697,329.322C305.697,322.301 307.169,316.062 310.112,310.605C313.055,305.148 317.363,300.963 323.035,298.05C327.357,295.812 332.738,294.693 339.176,294.693C347.546,294.693 354.084,296.448 358.79,299.959C363.497,303.469 366.524,308.321 367.873,314.514L354.353,317.043C353.402,313.732 351.616,311.118 348.995,309.202C346.374,307.286 343.101,306.328 339.176,306.328C333.229,306.328 328.5,308.214 324.989,311.985C321.479,315.756 319.723,321.351 319.723,328.77C319.723,336.772 321.502,342.774 325.058,346.775C328.615,350.776 333.275,352.776 339.039,352.776C341.89,352.776 344.749,352.217 347.615,351.098C350.482,349.979 352.942,348.622 354.996,347.028L354.996,338.474L339.406,338.474ZM480.682,338.474L480.682,327.115L510.023,327.115L510.023,353.972C507.172,356.731 503.04,359.161 497.629,361.261C492.218,363.361 486.738,364.411 481.188,364.411C474.137,364.411 467.99,362.932 462.747,359.973C457.504,357.015 453.565,352.784 450.928,347.281C448.291,341.777 446.973,335.791 446.973,329.322C446.973,322.301 448.445,316.062 451.388,310.605C454.331,305.148 458.639,300.963 464.311,298.05C468.634,295.812 474.014,294.693 480.453,294.693C488.822,294.693 495.36,296.448 500.067,299.959C504.773,303.469 507.8,308.321 509.149,314.514L495.629,317.043C494.678,313.732 492.892,311.118 490.271,309.202C487.65,307.286 484.377,306.328 480.453,306.328C474.505,306.328 469.776,308.214 466.265,311.985C462.755,315.756 460.999,321.351 460.999,328.77C460.999,336.772 462.778,342.774 466.334,346.775C469.891,350.776 474.551,352.776 480.315,352.776C483.166,352.776 486.025,352.217 488.891,351.098C491.758,349.979 494.218,348.622 496.273,347.028L496.273,338.474L480.682,338.474ZM381.348,363.261L381.348,295.843L394.96,295.843L394.96,322.378L421.633,322.378L421.633,295.843L435.246,295.843L435.246,363.261L421.633,363.261L421.633,333.783L394.96,333.783L394.96,363.261L381.348,363.261Z"/>
    </g>
</svg>
