<?xml version="1.0" encoding="UTF-8" standalone="no"?>
<!DOCTYPE svg PUBLIC "-//W3C//DTD SVG 1.1//EN" "http://www.w3.org/Graphics/SVG/1.1/DTD/svg11.dtd">
<svg width="100%" height="100%" viewBox="0 0 1024 1024" version="1.1" xmlns="http://www.w3.org/2000/svg" xmlns:xlink="http://www.w3.org/1999/xlink" xml:space="preserve" xmlns:serif="http://www.serif.com/" style="fill-rule:evenodd;clip-rule:evenodd;stroke-linecap:round;stroke-linejoin:round;stroke-miterlimit:1.5;">
    <metadata>
        <rdf:RDF
           xmlns:rdf = "http://www.w3.org/1999/02/22-rdf-syntax-ns#"
           xmlns:dc = "http://purl.org/dc/elements/1.1/"
           xmlns:schema="http://schema.org/">
            <rdf:Description about="">
                <dc:creator>Takuro Okada</dc:creator>
                <schema:license rdf:resource="https://raw.githubusercontent.com/mill6-plat6aux/ovule/refs/heads/main/LICENSE"/>
            </rdf:Description>
        </rdf:RDF>
    </metadata>
    <g transform="matrix(1.66914,0,0,1.16095,-303.127,-145.242)">
        <path d="M321.196,367.171C341.55,338.223 393.235,301.085 442.598,301.124C498.413,301.168 606.331,340.953 637.366,388.013C671.829,440.272 653.46,561.412 643.345,653.966C632.57,752.558 610.981,901.317 587.467,960.802C574.859,992.698 526.155,1007.45 495.597,1007.14C465.039,1006.82 418.459,988.234 404.121,958.912C391.376,932.848 386.737,887.662 395.597,848.542C408.171,793.023 462.663,706.548 444.524,610.683C430.985,539.131 346.175,531.721 325.957,489.662C310.412,457.323 300.842,396.119 321.196,367.171Z" style="stroke:black;stroke-width:0.7px;"/>
    </g>
    <g transform="matrix(1.69253,0,0,1.69584,-288.105,-342.875)">
        <path d="M302.567,307.892C291.213,298.171 280.896,271.836 280.896,253.782C280.896,235.728 284.067,214.508 309.6,204.644C332.652,195.738 350.139,212.942 361.371,225.75C372.602,238.559 379.048,267.101 376.99,281.495C375.033,295.178 360.253,306.865 349.021,312.111C337.79,317.356 312.551,316.441 302.567,307.892Z" style="stroke:black;stroke-width:0.59px;"/>
    </g>
    <g transform="matrix(1.69253,0,0,1.69584,-288.105,-342.875)">
        <path d="M302.567,307.892C291.213,298.171 280.896,271.836 280.896,253.782C280.896,235.728 284.067,214.508 309.6,204.644C332.652,195.738 350.139,212.942 361.371,225.75C372.602,238.559 379.048,267.101 376.99,281.495C375.033,295.178 360.253,306.865 349.021,312.111C337.79,317.356 312.551,316.441 302.567,307.892Z" style="stroke:black;stroke-width:0.59px;"/>
    </g>
    <g transform="matrix(1.06072,0.466372,-0.45962,1.04946,202.689,-359.071)">
        <path d="M302.567,307.892C291.213,298.171 280.896,271.836 280.896,253.782C280.896,235.728 284.067,214.508 309.6,204.644C332.652,195.738 350.139,212.942 361.371,225.75C372.602,238.559 379.048,267.101 376.99,281.495C375.033,295.178 360.253,306.865 349.021,312.111C337.79,317.356 312.551,316.441 302.567,307.892Z" style="stroke:black;stroke-width:0.87px;"/>
    </g>
    <g transform="matrix(0.976405,0.422284,-0.416171,0.96604,353.281,-305.881)">
        <path d="M302.567,307.892C291.213,298.171 280.896,271.836 280.896,253.782C280.896,235.728 284.067,214.508 309.6,204.644C332.652,195.738 350.139,212.942 361.371,225.75C372.602,238.559 379.048,267.101 376.99,281.495C375.033,295.178 360.253,306.865 349.021,312.111C337.79,317.356 312.551,316.441 302.567,307.892Z" style="stroke:black;stroke-width:0.94px;"/>
    </g>
    <g transform="matrix(0.943792,0.408179,-0.40227,0.933773,483.108,-245.54)">
        <path d="M302.567,307.892C291.213,298.171 280.896,271.836 280.896,253.782C280.896,235.728 284.067,214.508 309.6,204.644C332.652,195.738 350.139,212.942 361.371,225.75C372.602,238.559 379.048,267.101 376.99,281.495C375.033,295.178 360.253,306.865 349.021,312.111C337.79,317.356 312.551,316.441 302.567,307.892Z" style="stroke:black;stroke-width:0.98px;"/>
    </g>
    <g transform="matrix(0.841963,0.36414,-0.358868,0.833025,611.461,-136.516)">
        <path d="M302.567,307.892C291.213,298.171 280.896,271.836 280.896,253.782C280.896,235.728 284.067,214.508 309.6,204.644C332.652,195.738 350.139,212.942 361.371,225.75C372.602,238.559 379.048,267.101 376.99,281.495C375.033,295.178 360.253,306.865 349.021,312.111C337.79,317.356 312.551,316.441 302.567,307.892Z" style="stroke:black;stroke-width:1.1px;"/>
    </g>
</svg>
