<?xml version="1.0" encoding="UTF-8" standalone="no"?>
<!DOCTYPE svg PUBLIC "-//W3C//DTD SVG 1.1//EN" "http://www.w3.org/Graphics/SVG/1.1/DTD/svg11.dtd">
<svg width="100%" height="100%" viewBox="0 0 1024 1024" version="1.1" xmlns="http://www.w3.org/2000/svg" xmlns:xlink="http://www.w3.org/1999/xlink" xml:space="preserve" xmlns:serif="http://www.serif.com/" style="fill-rule:evenodd;clip-rule:evenodd;stroke-linejoin:round;stroke-miterlimit:2;">
    <metadata>
        <rdf:RDF
           xmlns:rdf = "http://www.w3.org/1999/02/22-rdf-syntax-ns#"
           xmlns:dc = "http://purl.org/dc/elements/1.1/"
           xmlns:schema="http://schema.org/">
            <rdf:Description about="">
                <dc:creator>Takuro Okada</dc:creator>
                <schema:license rdf:resource="https://raw.githubusercontent.com/mill6-plat6aux/ovule/refs/heads/main/LICENSE"/>
            </rdf:Description>
        </rdf:RDF>
    </metadata>
    <path d="M379.202,729.421C419.217,804.551 471.342,850.435 475.503,866.583C482.556,893.956 441.515,980.599 417.438,997.661C325.51,1062.81 3.606,927.112 0.035,579.165C-4.342,152.553 400.919,5.424 417.438,10.674C444.336,19.223 482.219,112.596 474.184,152.366C468.579,180.112 405.558,228.594 365.592,343.936L315.296,318.983C322.128,286.282 306.399,251.801 275.088,236.268C237.911,217.824 192.754,233.034 174.31,270.211C155.866,307.389 171.076,352.546 208.253,370.989C239.564,386.523 276.535,378.186 298.439,352.961L354.347,380.697C343.569,421.031 335.823,468.341 333.563,524.016L256.808,524.016C248.396,491.685 218.982,467.786 184.03,467.786C142.529,467.786 108.835,501.48 108.835,542.981C108.835,584.482 142.529,618.175 184.03,618.175C218.982,618.175 248.396,594.276 256.808,561.945L333.165,561.945C334.855,612.466 346.683,656.897 362.861,695.187L298.439,727.147C276.535,701.922 239.564,693.585 208.253,709.119C171.076,727.562 155.866,772.72 174.31,809.897C192.754,847.074 237.911,862.284 275.088,843.84C306.399,828.307 322.128,793.826 315.296,761.125L379.202,729.421ZM644.798,729.421C604.783,804.551 552.658,850.435 548.497,866.583C541.444,893.956 582.485,980.599 606.562,997.661C698.49,1062.81 1020.39,927.112 1023.97,579.165C1028.34,152.553 623.081,5.424 606.562,10.674C579.664,19.223 541.781,112.596 549.816,152.366C555.421,180.112 618.442,228.594 658.408,343.936L708.704,318.983C701.872,286.282 717.601,251.801 748.912,236.268C786.089,217.824 831.246,233.034 849.69,270.211C868.134,307.389 852.924,352.546 815.747,370.989C784.436,386.523 747.465,378.186 725.561,352.961L669.653,380.697C680.431,421.031 688.177,468.341 690.437,524.016L767.192,524.016C775.604,491.685 805.018,467.786 839.97,467.786C881.471,467.786 915.165,501.48 915.165,542.981C915.165,584.482 881.471,618.175 839.97,618.175C805.018,618.175 775.604,594.276 767.192,561.945L690.835,561.945C689.145,612.466 677.317,656.897 661.139,695.187L725.561,727.147C747.465,701.922 784.436,693.585 815.747,709.119C852.924,727.562 868.134,772.72 849.69,809.897C831.246,847.074 786.089,862.284 748.912,843.84C717.601,828.307 701.872,793.826 708.704,761.125L644.798,729.421Z" style="fill:rgb(112,27,91);"/>
</svg>
