<?xml version="1.0" encoding="UTF-8" standalone="no"?>
<!DOCTYPE svg PUBLIC "-//W3C//DTD SVG 1.1//EN" "http://www.w3.org/Graphics/SVG/1.1/DTD/svg11.dtd">
<svg width="100%" height="100%" viewBox="0 0 1024 1024" version="1.1" xmlns="http://www.w3.org/2000/svg" xmlns:xlink="http://www.w3.org/1999/xlink" xml:space="preserve" xmlns:serif="http://www.serif.com/" style="fill-rule:evenodd;clip-rule:evenodd;stroke-linejoin:round;stroke-miterlimit:2;fill:black;">
    <metadata>
        <rdf:RDF
           xmlns:rdf = "http://www.w3.org/1999/02/22-rdf-syntax-ns#"
           xmlns:dc = "http://purl.org/dc/elements/1.1/"
           xmlns:schema="http://schema.org/">
            <rdf:Description about="">
                <dc:creator>Takuro Okada</dc:creator>
                <schema:license rdf:resource="https://raw.githubusercontent.com/mill6-plat6aux/ovule/refs/heads/main/LICENSE"/>
            </rdf:Description>
        </rdf:RDF>
    </metadata>
    <g transform="matrix(1.00798,0,0,1.01359,-3.65106,32.4348)">
        <path d="M297.736,154.098C297.736,171.771 312.063,186.098 329.736,186.098L693.401,186.098C711.074,186.098 725.401,171.771 725.401,154.098L725.401,60.172C725.401,9.301 684.1,-32 633.229,-32L389.908,-32C339.037,-32 297.736,9.301 297.736,60.172C297.736,60.172 297.736,154.098 297.736,154.098ZM361.736,122.098L361.736,60.172C361.736,44.623 374.359,32 389.908,32C389.908,32 633.229,32 633.229,32C648.777,32 661.401,44.623 661.401,60.172L661.401,122.098L361.736,122.098Z"/>
    </g>
    <g transform="matrix(1.00798,0,0,1.01359,-4.08619,-13.9127)">
        <path d="M691.899,90.775L819.592,90.775C877.38,90.775 924.296,137.691 924.296,195.479L924.296,919.204C924.296,976.992 877.38,1023.91 819.592,1023.91C819.592,1023.91 204.408,1023.91 204.408,1023.91C146.62,1023.91 99.704,976.992 99.704,919.204C99.704,919.204 99.704,195.479 99.704,195.479C99.704,137.691 146.62,90.775 204.408,90.775L332.101,90.775L332.101,154.775L204.408,154.775C181.943,154.775 163.704,173.014 163.704,195.479L163.704,919.204C163.704,941.669 181.943,959.908 204.408,959.908L819.592,959.908C842.057,959.908 860.296,941.669 860.296,919.204L860.296,195.479C860.296,173.014 842.057,154.775 819.592,154.775L691.899,154.775L691.899,90.775Z"/>
    </g>
    <g transform="matrix(1.58083,0,0,1.52342,-158.865,-152.585)">
        <ellipse cx="299.812" cy="358.314" rx="55.929" ry="58.036"/>
    </g>
    <g transform="matrix(0.9809,0,0,1,28.6903,227.925)">
        <rect x="427.32" y="331.659" width="358.025" height="85.042"/>
    </g>
    <g transform="matrix(1.58083,0,0,1.52342,-158.865,56.2423)">
        <ellipse cx="299.812" cy="358.314" rx="55.929" ry="58.036"/>
    </g>
    <g transform="matrix(0.9809,0,0,1,28.6903,436.752)">
        <rect x="427.32" y="331.659" width="358.025" height="85.042"/>
    </g>
    <g transform="matrix(1.58083,0,0,1.52342,-158.865,265.07)">
        <ellipse cx="299.812" cy="358.314" rx="55.929" ry="58.036"/>
    </g>
    <path d="M799.036,350.756L447.849,350.756L447.849,435.799L799.036,435.799L799.036,350.756ZM691.243,53.456L338.514,53.456L338.514,174.39L691.243,174.39L691.243,53.456Z"/>
</svg>
