<?xml version="1.0" encoding="UTF-8" standalone="no"?>
<!DOCTYPE svg PUBLIC "-//W3C//DTD SVG 1.1//EN" "http://www.w3.org/Graphics/SVG/1.1/DTD/svg11.dtd">
<svg width="100%" height="100%" viewBox="0 0 720 71" version="1.1" xmlns="http://www.w3.org/2000/svg" xmlns:xlink="http://www.w3.org/1999/xlink" xml:space="preserve" xmlns:serif="http://www.serif.com/" style="fill:white;fill-rule:evenodd;clip-rule:evenodd;stroke-linejoin:round;stroke-miterlimit:2;">
    <metadata>
        <rdf:RDF
           xmlns:rdf = "http://www.w3.org/1999/02/22-rdf-syntax-ns#"
           xmlns:dc = "http://purl.org/dc/elements/1.1/"
           xmlns:schema="http://schema.org/">
            <rdf:Description about="">
                <dc:creator>Takuro Okada</dc:creator>
                <schema:license rdf:resource="https://raw.githubusercontent.com/mill6-plat6aux/ovule/refs/heads/main/LICENSE"/>
            </rdf:Description>
        </rdf:RDF>
    </metadata>
    <g transform="matrix(1,0,0,1,-58.5299,-359.867)">
        <path d="M541.396,430.688L562.999,430.688L599.586,382.645L636.172,430.688L657.776,430.688L606.422,363.254C604.797,361.12 602.268,359.867 599.586,359.867C596.903,359.867 594.374,361.12 592.749,363.254L541.396,430.688ZM171.427,430.688L193.03,430.688L229.617,382.645L266.204,430.688L287.807,430.688L236.453,363.254C234.828,361.12 232.299,359.867 229.617,359.867C226.934,359.867 224.405,361.12 222.78,363.254L171.427,430.688ZM58.53,359.931L58.704,420.944C58.719,426.331 62.562,430.688 67.297,430.688L159.253,430.688L159.253,411.137L75.863,411.137C75.863,411.137 75.717,359.867 75.717,359.867L58.53,359.931ZM428.499,359.931L428.673,420.944C428.688,426.331 432.531,430.688 437.266,430.688L529.222,430.688L529.222,411.137L445.832,411.137C445.832,411.137 445.686,359.867 445.686,359.867L428.499,359.931ZM668.973,368.461L668.973,422.095C668.973,426.841 672.82,430.688 677.566,430.688L769.696,430.688C772.934,430.688 775.896,428.869 777.361,425.981C778.825,423.093 778.542,419.628 776.628,417.016L759.706,393.918C759.706,393.918 767.978,371.427 767.978,371.427C768.948,368.791 768.568,365.847 766.961,363.544C765.353,361.24 762.722,359.867 759.913,359.867L677.566,359.867C672.82,359.867 668.973,363.715 668.973,368.461ZM299.004,368.461L299.004,422.095C299.004,426.841 302.851,430.688 307.597,430.688L399.727,430.688C402.965,430.688 405.928,428.869 407.392,425.981C408.856,423.093 408.573,419.628 406.659,417.016L389.737,393.918C389.737,393.918 398.009,371.427 398.009,371.427C398.979,368.791 398.599,365.847 396.992,363.544C395.385,361.24 392.753,359.867 389.944,359.867L307.597,359.867C302.851,359.867 299.004,363.715 299.004,368.461ZM745.692,403.871L752.747,413.501C752.747,413.501 686.16,413.501 686.16,413.501L686.16,403.871L745.692,403.871ZM375.723,403.871L382.778,413.501C382.778,413.501 316.191,413.501 316.191,413.501L316.191,403.871L375.723,403.871ZM686.16,386.684L686.16,377.054L747.596,377.054L744.054,386.684L686.16,386.684ZM316.191,386.684L316.191,377.054L377.627,377.054L374.085,386.684L316.191,386.684Z"/>
    </g>
</svg>
