<?xml version="1.0" encoding="UTF-8" standalone="no"?>
<!DOCTYPE svg PUBLIC "-//W3C//DTD SVG 1.1//EN" "http://www.w3.org/Graphics/SVG/1.1/DTD/svg11.dtd">
<svg width="100%" height="100%" viewBox="0 0 962 365" version="1.1" xmlns="http://www.w3.org/2000/svg" xmlns:xlink="http://www.w3.org/1999/xlink" xml:space="preserve" xmlns:serif="http://www.serif.com/" style="fill:white;fill-rule:evenodd;clip-rule:evenodd;stroke-linejoin:round;stroke-miterlimit:2;">
    <metadata>
        <rdf:RDF
           xmlns:rdf = "http://www.w3.org/1999/02/22-rdf-syntax-ns#"
           xmlns:dc = "http://purl.org/dc/elements/1.1/"
           xmlns:schema="http://schema.org/">
            <rdf:Description about="">
                <dc:creator>Takuro Okada</dc:creator>
                <schema:license rdf:resource="https://raw.githubusercontent.com/mill6-plat6aux/ovule/refs/heads/main/LICENSE"/>
            </rdf:Description>
        </rdf:RDF>
    </metadata>
    <path d="M680.923,309.309C668.906,266.936 679.014,206.051 693.969,150.989C718.944,59.037 761.503,-25.248 815.039,7.022C836.848,20.168 836.28,85.333 800.323,183.168C779.259,240.482 736.08,296.297 735.943,296.448C739.589,310.882 746.225,320.881 756.945,322.907C774.112,326.153 792.168,322.766 807.898,317.365C798.532,286.21 804.6,246.567 815.694,221.806C830.794,188.105 864.201,135.27 921.022,152.213C959.516,163.691 950.392,221.13 926.617,255.827C900.814,293.482 859.551,317.405 859.443,317.467C862.419,320.959 865.908,322.898 869.158,323.702C925.38,337.606 955.406,294.009 955.406,294.009L961.564,305.296C961.564,305.296 922.963,373.872 857.352,362.992C840.3,360.165 828.005,352.057 819.487,340.853C796.378,352.889 767.592,364.6 745.534,362.843C721.041,360.892 704.203,350.986 693.193,335.679C671.246,352.082 644.593,366.074 620.131,362.843C593.389,359.31 582.51,340.475 579.966,316.75C561.235,344.776 539.81,366.662 519.615,363.85C457.45,355.194 483.711,276.779 483.711,276.779C483.711,276.779 470.857,309.08 452.904,305.084C439.044,301.999 436.816,285.449 439.291,266.324C406.611,313.026 361.953,368.837 338.499,363.307C269.463,347.03 315.75,226.364 315.75,226.364C315.75,226.364 284.102,249.918 254.237,269.403C222.395,318.895 172.79,369.622 106.199,363.33C-1.197,353.184 -15.826,239.407 12.77,156.186C32.53,98.678 94.541,-7.81 213.162,5.838C247.85,9.829 263.652,27.184 263.652,27.184L254.432,39.854C254.432,39.854 231.737,32.117 203.669,36.655C142.238,46.588 87.654,110.978 67.123,162.825C65.9,165.915 64.794,168.936 63.813,171.869C40.75,240.797 66.896,295.265 123.328,304.472C136.734,306.659 149.47,306.125 161.427,303.477C91.782,292.855 83.104,210.478 102.484,154.073C116.221,114.097 158.153,46.703 240.25,58.925C303.115,68.284 307.189,138.528 289.711,194.316C287.492,202.736 283.891,213.864 278.14,226.418C302.675,211.711 323.501,198.693 323.501,198.693L374.516,214.039C374.516,214.039 341.675,300.048 356.594,304.472C380.867,311.669 453.371,207.61 458.603,200.045C458.796,199.582 458.9,199.339 458.9,199.339L479.186,205.509C479.186,205.509 453.85,268.444 464.335,272.432C471.845,275.288 506.47,199.339 506.47,199.339L556.755,214.319C556.755,214.319 523.835,301.474 537.684,304.81C555.823,309.18 587.725,239.267 599.771,211.098C602.599,203.513 604.558,198.968 604.558,198.968L654.56,214.346C654.56,214.346 613.659,322.481 630.943,327.613C642.336,330.995 661.814,321.625 680.923,309.309ZM859.241,317.018L859.131,317.093L859.231,317.215C859.277,317.269 859.322,317.323 859.367,317.377L859.443,317.467L859.443,317.467L859.443,317.467L859.443,317.467L859.287,316.985L859.241,317.018ZM735.943,296.448L735.93,296.394L735.912,296.413L735.92,296.474L735.943,296.448ZM852.099,294.811C852.184,294.771 884.907,279.286 904.738,248.645C925.034,217.286 927.394,189.232 910.678,183.839C894.097,178.489 875.274,211.959 865.189,237.184C854.902,262.916 851.572,281.553 852.099,294.811L852.099,294.811L852.099,294.812L852.102,294.88L852.109,295.032L852.132,295.016L852.159,294.996L852.099,294.812L852.099,294.811ZM732.471,269.626C733.892,267.622 762.632,226.766 778.479,176.568C801.632,103.231 813.145,59.998 801.584,48.813C785.797,33.54 759.41,116.526 745.641,166.365C737.722,195.032 731.139,236.516 732.471,269.626L732.416,269.703L732.468,270.104L732.489,270.086L732.485,269.975L732.471,269.626ZM232.156,86.014C186.974,78.294 146.282,125.317 134.151,161.57C118.119,209.484 139.112,259.227 178.095,266.979C210.511,273.425 251.719,230.752 264.714,199.001C286.494,145.784 273.946,93.155 232.156,86.014Z"/>
</svg>
